<svg width="25" height="25" xmlns="http://www.w3.org/2000/svg">
    <g fill="none" fill-rule="evenodd">
        <path d="M24.511 12.469c0 6.657-5.388 12.042-12.038 12.042S.43 19.126.43 12.47C.431 5.822 5.823.43 12.473.43c6.65 0 12.038 5.39 12.038 12.038"
              fill="#1A1A1A"/>
        <path fill="#FFF" d="M5.125 14.53h2.18v-1.264h-2.18z"/>
        <path d="M10.619 17.598H8.65V10.2a6.818 6.818 0 0 1-2.537 1.485V9.906c.51-.163 1.067-.48 1.672-.944.6-.47 1.012-1.014 1.236-1.635h1.597v10.27zM14.597 10.108c0 .39.11.694.328.911.224.225.517.33.883.33.37 0 .672-.109.896-.33.22-.224.33-.528.33-.921 0-.368-.11-.662-.33-.886-.222-.221-.512-.33-.872-.33-.379 0-.68.112-.902.336-.224.224-.333.515-.333.89m-.196 4.377c0 .54.137.966.417 1.27.278.304.627.454 1.043.454.405 0 .744-.144 1.011-.438.269-.294.402-.714.402-1.27 0-.48-.138-.864-.408-1.155-.269-.295-.616-.439-1.034-.439-.483 0-.843.167-1.078.496-.237.33-.353.695-.353 1.082m-.223-2.41c-.505-.211-.873-.505-1.105-.88a2.304 2.304 0 0 1-.347-1.231c0-.762.268-1.392.803-1.895.536-.496 1.295-.742 2.28-.742.972 0 1.732.246 2.272.742.536.503.812 1.133.812 1.895 0 .473-.128.895-.376 1.263-.245.375-.592.653-1.043.848.575.23 1.007.563 1.303 1.002.3.438.448.944.448 1.516 0 .948-.304 1.719-.908 2.31-.605.596-1.413.89-2.42.89-.932 0-1.71-.246-2.335-.736-.736-.579-1.1-1.372-1.1-2.38 0-.554.139-1.063.416-1.523.275-.464.707-.83 1.3-1.079"
              fill="#FFF"/>
        <path d="M19.096 18.574L6.306 5.7a9.063 9.063 0 0 1 6.076-2.34 9.065 9.065 0 0 1 6.451 2.686 9.053 9.053 0 0 1 2.644 6.406c0 2.356-.9 4.496-2.381 6.123m-13.168.292a9.073 9.073 0 0 1-2.64-6.415 9.02 9.02 0 0 1 1.767-5.369l12.65 12.736a9.04 9.04 0 0 1-5.323 1.728 9.082 9.082 0 0 1-6.454-2.68M20.23 4.676a10.964 10.964 0 0 0-7.756-3.203c-3.016 0-5.765 1.22-7.756 3.203a10.952 10.952 0 0 0-3.243 7.794 10.969 10.969 0 0 0 3.243 7.803 10.964 10.964 0 0 0 7.756 3.2 10.96 10.96 0 0 0 7.756-3.2 10.977 10.977 0 0 0 3.244-7.803c0-3.05-1.25-5.817-3.244-7.794"
              fill="#E1103E"/>
    </g>
</svg>